<svg width="21" height="20" viewBox="0 0 21 20" fill="none" xmlns="http://www.w3.org/2000/svg">
<path d="M18.7926 5.94958V14.2829C18.7926 14.8355 18.5731 15.3654 18.1824 15.7561C17.7917 16.1468 17.2618 16.3663 16.7093 16.3663H4.20931C3.65678 16.3663 3.12687 16.1468 2.73617 15.7561C2.34547 15.3654 2.12598 14.8355 2.12598 14.2829V5.94958" stroke="#8D8BA7" stroke-width="1.4" stroke-linecap="round" stroke-linejoin="round"/>
<path d="M18.7926 5.94954C18.7926 5.39701 18.5731 4.86711 18.1824 4.47641C17.7917 4.0857 17.2618 3.86621 16.7093 3.86621H4.20931C3.65678 3.86621 3.12687 4.0857 2.73617 4.47641C2.34547 4.86711 2.12598 5.39701 2.12598 5.94954L9.35514 10.4634C9.68625 10.6704 10.0689 10.7801 10.4593 10.7801C10.8498 10.7801 11.2324 10.6704 11.5635 10.4634L18.7926 5.94954Z" stroke="#8D8BA7" stroke-width="1.4" stroke-linecap="round" stroke-linejoin="round"/>
</svg>
