<svg width="21" height="20" viewBox="0 0 21 20" fill="none" xmlns="http://www.w3.org/2000/svg">
<path d="M12.7109 17.3852L12.72 17.3915C13.507 17.8927 14.4415 18.1103 15.369 18.0084C16.2964 17.9066 17.1614 17.4913 17.8209 16.8314L18.3939 16.2584C18.5208 16.1315 18.6216 15.9809 18.6903 15.815C18.759 15.6492 18.7944 15.4715 18.7944 15.292C18.7944 15.1125 18.759 14.9347 18.6903 14.7689C18.6216 14.6031 18.5208 14.4524 18.3939 14.3255L15.9773 11.9108C15.8504 11.7838 15.6998 11.6831 15.5339 11.6144C15.3681 11.5457 15.1904 11.5103 15.0109 11.5103C14.8314 11.5103 14.6536 11.5457 14.4878 11.6144C14.322 11.6831 14.1713 11.7838 14.0444 11.9108C13.7882 12.1669 13.4407 12.3108 13.0784 12.3108C12.7161 12.3108 12.3687 12.1669 12.1124 11.9108L8.24849 8.04592C7.99234 7.7897 7.84845 7.44223 7.84845 7.07993C7.84845 6.71763 7.99234 6.37017 8.24849 6.11394C8.37545 5.98706 8.47617 5.8364 8.54489 5.67057C8.61361 5.50474 8.64898 5.327 8.64898 5.1475C8.64898 4.968 8.61361 4.79026 8.54489 4.62443C8.47617 4.4586 8.37545 4.30794 8.24849 4.18105L5.83283 1.76631C5.57661 1.51017 5.22914 1.36627 4.86684 1.36627C4.50455 1.36627 4.15708 1.51017 3.90086 1.76631L3.327 2.33926C2.66715 2.9989 2.25209 3.86391 2.1504 4.79137C2.04871 5.71884 2.26648 6.65324 2.76772 7.44018L2.77319 7.44929C5.42037 11.3659 8.79381 14.7387 12.7109 17.3852V17.3852Z" stroke="#8D8BA7" stroke-width="1.4" stroke-linecap="round" stroke-linejoin="round"/>
</svg>
