<svg width="21" height="25" viewBox="0 0 21 25" fill="none" xmlns="http://www.w3.org/2000/svg">
<path d="M17.3202 13.9562C17.3202 19.3351 11.811 22.6488 10.6661 23.28C10.6027 23.315 10.5314 23.3334 10.459 23.3334C10.3865 23.3334 10.3153 23.315 10.2519 23.28C9.10611 22.6488 3.59863 19.3351 3.59863 13.9562C3.59863 9.66827 6.17142 6.66669 10.4594 6.66669C14.7474 6.66669 17.3202 9.66827 17.3202 13.9562Z" stroke="#8D8BA7" stroke-width="1.4" stroke-linecap="round" stroke-linejoin="round"/>
<path d="M7.0293 13.5274C7.0293 14.4372 7.39071 15.3098 8.03403 15.9531C8.67735 16.5964 9.54988 16.9578 10.4597 16.9578C11.3695 16.9578 12.242 16.5964 12.8853 15.9531C13.5286 15.3098 13.8901 14.4372 13.8901 13.5274C13.8901 12.6176 13.5286 11.7451 12.8853 11.1018C12.242 10.4585 11.3695 10.097 10.4597 10.097C9.54988 10.097 8.67735 10.4585 8.03403 11.1018C7.39071 11.7451 7.0293 12.6176 7.0293 13.5274V13.5274Z" stroke="#8D8BA7" stroke-width="1.4" stroke-linecap="round" stroke-linejoin="round"/>
</svg>
