<?xml version="1.0" encoding="UTF-8"?>
<svg id="Camada_1" data-name="Camada 1" xmlns="http://www.w3.org/2000/svg" viewBox="0 0 369.65 261.76">
  <defs>
    <style>
      .cls-1 {
        fill: #f5f4f5;
      }

      .cls-1, .cls-2 {
        stroke-width: 0px;
      }

      .cls-2 {
        fill: #1e1e1e;
      }

      .cls-3 {
        fill: #1d1d1b;
        font-family: PGF-Now-Regular, PGF-Now-Regular;
        font-size: 51.84px;
      }

      .cls-4 {
        letter-spacing: -.07em;
      }
    </style>
  </defs>
  <g>
    <path class="cls-2" d="m191.04,37.24c-12.18,4.27-23.7,9.27-34.98,14.85-4.63,2.29-9.16,4.75-13.74,7.13-.72.37-1.48.69-2.23,1-.71.29-1.42.38-2-.26-.76-.84-.12-1.55.31-2.19.83-1.24,2.09-2.01,3.36-2.71,15.81-8.72,31.99-16.63,49.05-22.64,1.53-.54,2.33-1.31,2.8-2.88,2.56-8.67,5.22-17.32,8.37-25.8.65-1.76,1.34-4.39,3.57-3.57,2.18.8.37,2.99-.1,4.48-2.6,8.35-5.27,16.68-8.06,25.45,6.61-1.87,12.79-3.59,19.16-4.25,11.92-1.23,23.8-.94,35.37,2.5,13.84,4.12,18.83,15.29,13.03,28.62-3.91,8.97-10.85,15.33-18.41,21.12-10.67,8.17-22.8,13.78-34.73,19.73-11.68,5.82-23.37,11.63-35.08,17.39-1.53.75-2.27,1.73-2.64,3.41-.89,4.06-2.05,8.06-3,11.7,5.03,0,10.02.15,14.99-.03,13.36-.49,26.71-1.12,40.06-1.71,1.55-.07,3.1-.17,4.55.49,1.03.47,2.04,1.15,1.86,2.4-.18,1.28-1.32,1.61-2.47,1.69-2.36.16-4.72.35-7.08.43-16.9.6-33.81,1.21-50.71,1.72-1.84.06-2.62.54-3.08,2.44-3.81,15.66-7.91,31.25-11.05,47.07-.22,1.11-1.84,3.09,1.02,3.5.09.01.19.28.21.43.17,1.31-4.24,5.75-5.5,5.57-1.11-.15-1.18-1.1-1.28-1.84-.23-1.73.18-3.43.6-5.1,4.08-16.33,8.13-32.68,12.32-48.98.57-2.21.33-2.76-2.03-2.65-6.63.32-13.27.42-19.91.57-1.92.04-3.83-.12-5.51-1.18-2.1-1.31-2.31-3.31-.41-4.9.96-.8,2.13-1.38,3.26-1.94,9.73-4.83,19.48-9.63,29.23-14.43.99-.49,1.7-.98,2.01-2.27,2.96-12.42,5.97-24.83,9.12-37.2,3.12-12.27,6.43-24.49,9.78-37.17Zm-15,73.3c1.12-.48,1.72-.69,2.27-.97,12.92-6.59,25.82-13.21,38.75-19.79,11.1-5.64,22.04-11.54,31.59-19.64,6.35-5.38,12.21-11.21,14.56-19.58,1.89-6.72-.47-11.96-6.72-15.17-10.45-5.37-21.79-5.86-33.16-5.67-8.67.15-16.96,2.73-25.25,5.11-1.78.51-2.62,1.46-3.11,3.21-4.22,15.08-8.54,30.12-12.32,45.32-2.2,8.86-4.33,17.73-6.63,27.18Zm-5.59,7.68c-3.01,1.44-5.65,2.75-8.32,3.97-4.85,2.22-9.73,4.36-14.56,6.61-.91.42-2.45.76-2.2,2.02.24,1.17,1.72.7,2.63.71,5.89.06,11.79.05,17.67-.39.93-.07,1.7-.04,1.98-1.31.82-3.77,1.8-7.5,2.8-11.61Z"/>
    <path class="cls-1" d="m170.46,118.22c-1,4.11-1.98,7.85-2.8,11.61-.28,1.26-1.05,1.24-1.98,1.31-5.88.44-11.78.45-17.67.39-.91,0-2.39.46-2.63-.71-.26-1.26,1.29-1.59,2.2-2.02,4.83-2.25,9.71-4.39,14.56-6.61,2.67-1.23,5.31-2.53,8.32-3.97Z"/>
  </g>
  <text class="cls-3" transform="translate(0 247.87)"><tspan x="0" y="0">RA</tspan><tspan class="cls-4" x="58.27" y="0">F</tspan><tspan x="76.31" y="0">AELLO GROUP</tspan></text>
</svg>